<?xml version="1.0" encoding="UTF-8"?> <svg xmlns="http://www.w3.org/2000/svg" id="_Слой_1" data-name="Слой_1" version="1.1" viewBox="0 0 131.7 29.8"><defs><style> .st0 { fill: #fff; } .st1 { fill: #1f7eff; } </style></defs><g><rect class="st0" x="6.6" y="7.4" width="18" height="16.3"></rect><g><path class="st1" d="M21.2,4.8c.4,0,.7.1,1.1.2,1.8.4,3.1,1.9,3.5,3.7s0,.6.1.8v12.3c0,.2,0,.6-.1.8-.3,1.8-1.7,3.3-3.5,3.7s-.7,0-1.1.2h-12.3c-.4,0-.7-.1-1.1-.2-1.8-.4-3.2-1.9-3.5-3.7s0-.6-.1-.8v-12.4c.2-2.7,2-4.5,4.7-4.7h12.4ZM19.2,7.1c-.9.1-.7,1-.1,1s.2,0,.3,0c1.1,0,2,.6,2.4,1.6s0,.8.6.8c1,0,.2-1.6,0-2-.6-1-1.9-1.6-3.1-1.4ZM14.7,8.9c-.4,0-.6.2-.9.4-1.8,1.2-3.5,2.5-5.3,3.8-.3.3-.4.8-.4,1.2-.1,2.1.1,4.4,0,6.5,0,.7.4,1.3,1.1,1.4h11.3c.7,0,1.2-.6,1.2-1.3-.1-2.2.2-4.6,0-6.7s-.3-1-.7-1.4c-1.7-1.1-3.3-2.4-4.9-3.5s-.8-.5-1.4-.4ZM18.7,9.8c.3.2.8,0,1.2.3s.2,1.1.9.9.2-.9,0-1.2c-.4-.7-1.2-1-1.9-.9s-.6.6-.3.8Z"></path><polygon class="st1" points="20 20.5 10 20.5 10 14.3 15 10.8 20 14.3 20 20.5"></polygon></g></g><g><path class="st0" d="M39,6.8h2.1l-5.5,7.2h-2.1l2.1-2.7.2-.2h0c0-.1-3.3-4.3-3.3-4.3h2.1l2.2,2.8h.1l2.2-2.8Z"></path><path class="st0" d="M44.2,13.9h-1.7v-7.2l4.1,3.6,4.1-3.6v7.2h-1.7v-3.4l-2.4,2.1-2.4-2.1v3.4Z"></path><path class="st0" d="M54,6.8v2.5h4.9v-2.5h1.7v7.2h-1.7v-2.9h-4.9v2.9h-1.7v-7.2h1.7Z"></path><path class="st0" d="M63.9,9.3h3.9s.5,0,.5,0c.3,0,.5.2.5.5v3.6c0,.3-.2.5-.5.5h-6.1v-7.2h1.7v2.5ZM67,11h-3.2v1.2h3.2v-1.2ZM69.5,6.8h1.7v7.2h-1.7v-7.2Z"></path><path class="st0" d="M78.9,9.9l-6.1,4.1v-7.2h1.7v3.7l6.2-3.7v7.2h-1.7v-4.1ZM77.2,5h1.9l-1.4,1.8h-1.9s-1.4-1.8-1.4-1.8h1.9l.5.6.5-.6Z"></path><path class="st0" d="M88.4,13.9c-.3,0-.5-.2-.5-.5v-6.2c0-.3.2-.5.5-.5h7.3c.3,0,.5.2.5.5v6.2c0,.3-.2.5-.5.5h-7.3ZM89.6,12.2h4.9v-3.8h-4.9v3.8Z"></path><path class="st0" d="M107.4,6.8l-3.7,7.2h-2.4l-3.7-7.2h1.9l2.8,5.5h.4l2.8-5.5h1.9Z"></path><path class="st0" d="M110.5,8.5v.9h5.1v1.7h-5.1v1.2h5.8l.7,1.7h-8.3v-7.2h8.3l-.7,1.7h-5.8Z"></path><path class="st0" d="M120.2,13.9h-1.7v-7.2l6.2,3.7v-3.7h1.7v7.2l-6.1-4.1v4.1Z"></path></g><g><path class="st0" d="M31.5,21.4c0-.5.1-1,.4-1.4s.6-.7,1-.9.8-.3,1.3-.3,1.1.1,1.5.3v.6c-.4-.2-.9-.4-1.4-.4s-.5,0-.8.1c-.2,0-.5.2-.7.4-.2.2-.4.4-.5.6-.1.3-.2.6-.2.9s0,.7.2,1,.3.5.5.6c.2.2.4.3.7.3.2,0,.5.1.8.1s.7,0,.9-.2v-2h.6v2.4c-.5.2-1,.3-1.6.3s-.7,0-1-.1c-.3,0-.6-.2-.9-.4-.3-.2-.5-.5-.6-.8-.2-.3-.2-.7-.2-1.2Z"></path><path class="st0" d="M37.1,23.5c-.4-.3-.5-.8-.5-1.3s.2-1,.5-1.3c.4-.3.8-.5,1.3-.5s.9.2,1.3.5c.4.3.5.8.5,1.3s-.2,1-.5,1.3c-.4.3-.8.5-1.3.5s-.9-.2-1.3-.5ZM39.3,23.1c.2-.2.4-.5.4-.9s-.1-.7-.4-.9c-.2-.2-.5-.3-.9-.3s-.7.1-.9.3c-.2.2-.4.5-.4.9s.1.7.4.9c.2.2.5.3.9.3s.7-.1.9-.3Z"></path><path class="st0" d="M41.4,23.5c-.4-.3-.5-.8-.5-1.3s.2-1,.5-1.3c.4-.3.8-.5,1.3-.5s.9.2,1.3.5c.4.3.5.8.5,1.3s-.2,1-.5,1.3c-.4.3-.8.5-1.3.5s-.9-.2-1.3-.5ZM43.6,23.1c.2-.2.4-.5.4-.9s-.1-.7-.4-.9c-.2-.2-.5-.3-.9-.3s-.7.1-.9.3c-.2.2-.4.5-.4.9s.1.7.4.9c.2.2.5.3.9.3s.7-.1.9-.3Z"></path><path class="st0" d="M45.6,23.5c-.3-.3-.5-.8-.5-1.3s.2-.9.5-1.3c.3-.3.7-.5,1.2-.5s1,.2,1.4.7v-.6h.5v3.4c0,.6-.2,1-.5,1.2-.4.3-.8.4-1.3.4s-1-.1-1.4-.3v-.6c.4.2.9.4,1.3.4s.7,0,1-.3c.3-.2.4-.5.4-.9v-.5c-.3.4-.8.6-1.3.6s-.9-.2-1.2-.5ZM48.1,21.8c-.1-.2-.3-.4-.5-.6-.2-.2-.5-.2-.8-.2s-.6.1-.9.4c-.2.2-.3.5-.3.9s.1.7.3.9c.2.2.5.4.9.4s.6,0,.8-.2c.2-.2.4-.3.5-.5v-.9Z"></path><path class="st0" d="M49.8,18.7h.6v5.2h-.6v-5.2Z"></path><path class="st0" d="M51.2,22.2c0-.6.2-1,.5-1.3.3-.3.7-.5,1.2-.5s.8.1,1,.3c.3.2.5.5.5.8s0,.6,0,1h-2.7c0,.3.2.6.5.8.3.2.6.3,1,.3s.8,0,1.1-.3v.6c-.3.2-.7.3-1.2.3s-1-.2-1.4-.5c-.4-.3-.5-.8-.5-1.3ZM54,21.9c0-.1,0-.2,0-.3,0-.1,0-.2-.2-.3,0-.1-.2-.2-.3-.3-.2,0-.3-.1-.5-.1-.3,0-.6,0-.8.3-.2.2-.4.4-.4.8h2.2Z"></path><path class="st0" d="M60,23.2c0,.2,0,.3.3.3s.2,0,.3,0v.5c-.1,0-.3,0-.4,0-.3,0-.5-.1-.6-.4-.4.3-.8.5-1.3.5s-.6,0-.9-.3c-.2-.2-.4-.4-.4-.8s.2-.7.5-.9c.3-.2.7-.3,1.1-.3s.6,0,1,.1h0c0-.4,0-.6-.3-.7-.2-.2-.4-.2-.7-.2s-.9,0-1.3.3v-.6c.4-.2.9-.2,1.3-.2s.8.1,1.1.4c.3.3.4.6.4,1.1v1.3ZM57.5,22.9c0,.2,0,.3.2.4.1,0,.3.1.5.1.5,0,.9-.2,1.2-.5v-.6c-.3,0-.6-.1-.9-.1s-.5,0-.7.2c-.2.1-.3.3-.3.5Z"></path><path class="st0" d="M61.6,21c.1-.2.3-.3.5-.4.2-.1.5-.2.7-.2.4,0,.8.1,1,.4.3.3.4.6.4,1v2.1h-.6v-2.1c0-.3,0-.5-.3-.7s-.4-.2-.7-.2c-.4,0-.8.2-1.1.7v2.3h-.6v-3.4h.5v.5Z"></path><path class="st0" d="M68.1,18.9h.6v5h-.5v-.6c-.4.4-.9.7-1.4.7s-.9-.2-1.2-.5c-.3-.3-.5-.8-.5-1.3s.2-.9.5-1.3c.3-.3.7-.5,1.2-.5s1,.2,1.3.6v-2.1ZM68.1,21.8c-.1-.2-.3-.4-.5-.6-.2-.2-.5-.2-.8-.2s-.6.1-.9.4c-.2.2-.3.5-.3.9s.1.7.3.9c.2.2.5.4.9.4s.6,0,.8-.2c.2-.2.4-.4.5-.6v-.9Z"></path><path class="st0" d="M71.5,23.9h-.7l2.2-5h.7l2.2,5h-.6l-.5-1.2h-2.7l-.5,1.2ZM73.2,19.7l-1,2.4h2.2l-1-2.4s0,0,0-.2c0,.1,0,.2,0,.2Z"></path><path class="st0" d="M76.9,21c.4-.4.9-.7,1.4-.7s.9.2,1.2.5c.3.3.5.8.5,1.3s-.2.9-.5,1.3c-.3.3-.7.5-1.2.5s-1-.2-1.3-.6v2.1h-.6v-5h.5v.6ZM79.1,23.1c.2-.2.3-.5.3-.9s-.1-.7-.3-.9c-.2-.2-.5-.4-.9-.4s-.6,0-.8.2c-.2.2-.4.4-.5.6v.9c.1.2.3.4.5.6.2.2.5.2.8.2s.6-.1.9-.4Z"></path><path class="st0" d="M81.4,21c.4-.4.9-.7,1.4-.7s.9.2,1.2.5c.3.3.5.8.5,1.3s-.2.9-.5,1.3c-.3.3-.7.5-1.2.5s-1-.2-1.3-.6v2.1h-.6v-5h.5v.6ZM83.6,23.1c.2-.2.3-.5.3-.9s-.1-.7-.3-.9c-.2-.2-.5-.4-.9-.4s-.6,0-.8.2c-.2.2-.4.4-.5.6v.9c.1.2.3.4.5.6.2.2.5.2.8.2s.6-.1.9-.4Z"></path><path class="st0" d="M85.4,18.7h.6v5.2h-.6v-5.2Z"></path><path class="st0" d="M86.8,22.2c0-.6.2-1,.5-1.3.3-.3.7-.5,1.2-.5s.8.1,1,.3c.3.2.5.5.5.8s0,.6,0,1h-2.7c0,.3.2.6.5.8.3.2.6.3,1,.3s.8,0,1.1-.3v.6c-.3.2-.7.3-1.2.3s-1-.2-1.4-.5c-.4-.3-.5-.8-.5-1.3ZM89.6,21.9c0-.1,0-.2,0-.3,0-.1,0-.2-.2-.3,0-.1-.2-.2-.3-.3-.2,0-.3-.1-.5-.1-.3,0-.6,0-.8.3-.2.2-.4.4-.4.8h2.2Z"></path><path class="st0" d="M95.5,23.2c0,.2,0,.3.3.3s.2,0,.3,0v.5c-.1,0-.3,0-.4,0-.3,0-.5-.1-.6-.4-.4.3-.8.5-1.3.5s-.6,0-.9-.3c-.2-.2-.4-.4-.4-.8s.2-.7.5-.9c.3-.2.7-.3,1.1-.3s.6,0,1,.1h0c0-.4,0-.6-.3-.7-.2-.2-.4-.2-.7-.2s-.9,0-1.3.3v-.6c.4-.2.9-.2,1.3-.2s.8.1,1.1.4c.3.3.4.6.4,1.1v1.3ZM93,22.9c0,.2,0,.3.2.4.1,0,.3.1.5.1.5,0,.9-.2,1.2-.5v-.6c-.3,0-.6-.1-.9-.1s-.5,0-.7.2c-.2.1-.3.3-.3.5Z"></path><path class="st0" d="M97.1,21c.4-.4.9-.7,1.4-.7s.9.2,1.2.5c.3.3.5.8.5,1.3s-.2.9-.5,1.3c-.3.3-.7.5-1.2.5s-1-.2-1.3-.6v2.1h-.6v-5h.5v.6ZM99.3,23.1c.2-.2.3-.5.3-.9s-.1-.7-.3-.9c-.2-.2-.5-.4-.9-.4s-.6,0-.8.2c-.2.2-.4.4-.5.6v.9c.1.2.3.4.5.6.2.2.5.2.8.2s.6-.1.9-.4Z"></path><path class="st0" d="M101.6,21c.4-.4.9-.7,1.4-.7s.9.2,1.2.5c.3.3.5.8.5,1.3s-.2.9-.5,1.3c-.3.3-.7.5-1.2.5s-1-.2-1.3-.6v2.1h-.6v-5h.5v.6ZM103.8,23.1c.2-.2.3-.5.3-.9s-.1-.7-.3-.9c-.2-.2-.5-.4-.9-.4s-.6,0-.8.2c-.2.2-.4.4-.5.6v.9c.1.2.3.4.5.6.2.2.5.2.8.2s.6-.1.9-.4Z"></path><path class="st0" d="M105.3,21.4c0-.3.1-.6.4-.7s.6-.2.9-.2.9,0,1.2.3v.5c-.1,0-.3-.2-.5-.2-.2,0-.4,0-.6,0s-.4,0-.5.1-.2.2-.2.3,0,.2.2.3c.1,0,.2.1.4.2s.3,0,.5.2.4.1.5.2.3.2.4.3c.1.1.2.3.2.5,0,.3-.1.6-.4.7s-.6.2-1,.2-1-.1-1.3-.3v-.6c.4.2.8.4,1.3.4s.9-.1.9-.4,0-.2-.2-.3c-.2,0-.3-.2-.5-.2-.2,0-.4-.1-.6-.2-.2,0-.4-.2-.5-.3-.2-.2-.2-.3-.2-.6Z"></path></g></svg> 