<?xml version="1.0" encoding="UTF-8"?> <!-- Generator: Adobe Illustrator 27.3.1, SVG Export Plug-In . SVG Version: 6.00 Build 0) --> <svg xmlns="http://www.w3.org/2000/svg" xmlns:xlink="http://www.w3.org/1999/xlink" id="Слой_1" x="0px" y="0px" viewBox="0 0 641.74 544.7" xml:space="preserve"> <g> <path fill="#FFFFFF" d="M127.03,280.75c0-7.19,0-14.37,0-21.56c0.24-1.28,0.53-2.56,0.72-3.85c1.32-9.06,2.07-18.25,4.02-27.17 c10.77-49.4,36.32-89.75,76.7-119.98c49.56-37.1,105.31-49.36,165.95-36.69c48.9,10.22,88.67,35.81,119.07,75.35 c32.82,42.68,46.48,91.29,41.35,144.78c-4.15,43.2-20.87,81.38-49.6,113.99C453.54,441.59,414,464,366.71,472.4 c-7.69,1.37-15.5,2.13-23.25,3.18c-7.45,0-14.91,0-22.36,0c-5.8-0.65-11.62-1.17-17.4-1.97c-29.09-4.04-56.13-13.79-80.91-29.59 c-2.56-1.63-4.75-2.04-7.73-1.06c-23.35,7.61-46.76,15.04-70.15,22.52c-1.28,0.41-2.58,0.79-4.4,1.34 c8.17-24.31,16.02-47.84,24.03-71.33c1.08-3.16,0.94-5.51-1.08-8.39c-17.13-24.4-28.18-51.37-33.23-80.73 C128.78,297.9,128.07,289.29,127.03,280.75z M398.13,386.5c0.08-0.31,0.15-0.62,0.23-0.93c2.39-0.13,4.81-0.06,7.16-0.45 c3.27-0.54,6.59-1.13,9.7-2.22c28.83-10.1,38.65-23.93,39.47-50.68c0.13-4.27-1.56-7.03-5.37-8.84 c-15.11-7.19-30.13-14.59-45.3-21.66c-8.02-3.74-12.61-2.26-17.89,4.87c-3.96,5.34-7.85,10.73-11.95,15.97 c-6.07,7.76-10.57,8.85-19.78,5.09c-33.65-13.73-58.75-37.22-77.53-67.92c-3.92-6.41-3.73-8.89,1.21-14.6 c3.92-4.52,8.09-8.84,11.8-13.53c3.15-3.97,6.23-8.37,3.96-13.84c-7.12-17.17-14.33-34.31-21.76-51.35 c-0.86-1.97-3.02-4.24-4.97-4.71c-10.75-2.59-21.95-3.2-30.89,4.11c-19.92,16.27-26.1,38.08-22.36,62.92 c2,13.3,7.3,25.57,14.37,36.91c15.62,25.06,34.06,47.82,55.91,67.81c24.97,22.85,54.33,37.49,86.48,46.93 C379.61,383.04,388.95,384.5,398.13,386.5z"></path> </g> </svg> 