<?xml version="1.0" encoding="UTF-8"?> <!-- Generator: Adobe Illustrator 27.3.1, SVG Export Plug-In . SVG Version: 6.00 Build 0) --> <svg xmlns="http://www.w3.org/2000/svg" xmlns:xlink="http://www.w3.org/1999/xlink" id="Слой_1" x="0px" y="0px" viewBox="0 0 641.74 544.7" xml:space="preserve"> <g> <path fill="#FFFFFF" d="M101.15,256.01c3.46-7.06,9.74-10.78,16.63-13.46c27.36-10.63,54.77-21.1,82.18-31.59 c93.88-35.95,187.77-71.89,281.67-107.8c2.22-0.85,4.54-1.63,6.88-1.96c12.58-1.79,21.53,5.72,21.17,19.07 c-0.23,8.67-2.18,17.36-4,25.91C486.4,237.01,467,327.82,447.52,418.62c-0.99,4.62-2.55,9.27-4.71,13.46 c-4.18,8.11-11.39,11.16-20.11,8.53c-4.24-1.28-8.54-3.18-12.11-5.76c-29.3-21.21-58.44-42.65-87.62-64.02 c-1.17-0.86-2.36-1.69-3.79-2.72c-1.16,1.02-2.26,1.93-3.29,2.91c-14.92,14.24-29.84,28.46-44.73,42.74 c-4.41,4.23-9.48,6.72-16.27,6.61c0.39-5.76,0.75-11.41,1.15-17.05c1.78-24.94,3.52-49.89,5.45-74.82c0.14-1.85,1.27-4.06,2.66-5.3 c56.54-50.93,113.17-101.76,169.79-152.61c0.4-0.36,0.94-0.63,1.18-1.07c1.07-1.97,2.05-3.99,3.06-5.99 c-2.43-0.48-4.99-1.66-7.26-1.25c-2.76,0.49-5.44,2.09-7.89,3.62c-70.46,44.03-140.87,88.12-211.36,132.1 c-1.55,0.97-4.05,1.5-5.73,0.99c-29.97-9.16-59.89-18.51-89.82-27.82c-6.07-1.89-11.57-4.61-14.96-10.38 C101.15,259.21,101.15,257.61,101.15,256.01z"></path> </g> </svg> 