<?xml version="1.0" encoding="UTF-8"?> <svg xmlns="http://www.w3.org/2000/svg" id="_Слой_1" data-name="Слой 1" version="1.1" viewBox="0 0 142 145"><defs><style> .cls-1 { fill: #f15a24; } .cls-1, .cls-2 { stroke-width: 0px; } .cls-2 { fill: #fff; } </style></defs><path class="cls-1" d="M31.98,128.15c5.96-1.94,11.93-3.88,17.89-5.83,2.55,5.73,5.09,11.46,7.64,17.19,4.66-4.2,9.32-8.4,13.97-12.6.85.76,1.69,1.53,2.54,2.29,3.81,3.44,7.62,6.87,11.43,10.31,2.55-5.73,5.09-11.46,7.64-17.19,5.96,1.94,11.93,3.88,17.89,5.83,0-6.27,0-12.54-.01-18.82,6.24-.65,12.48-1.3,18.71-1.95-2.56-5.73-5.11-11.46-7.66-17.18,5.43-3.13,10.87-6.26,16.3-9.4-4.66-4.19-9.33-8.39-13.99-12.58.36-.5.73-1,1.09-1.5,3.33-4.57,6.65-9.14,9.98-13.71-5.97-1.93-11.93-3.87-17.9-5.8,1.31-6.13,2.62-12.27,3.92-18.4-6.24.66-12.47,1.32-18.71,1.98-1.3-6.14-2.6-12.27-3.9-18.41-5.43,3.14-10.86,6.28-16.29,9.42-2.79-3.85-5.58-7.69-8.37-11.54-.89-1.23-1.79-2.46-2.68-3.69-3.68,5.08-7.37,10.15-11.05,15.23-5.43-3.14-10.86-6.28-16.29-9.42-1.3,6.13-2.6,12.27-3.9,18.41-6.24-.66-12.47-1.32-18.71-1.98,1.31,6.13,2.62,12.27,3.92,18.4-5.97,1.93-11.93,3.87-17.9,5.8,3.33,4.57,6.65,9.14,9.98,13.71.36.5.73,1,1.09,1.5-4.66,4.19-9.33,8.39-13.99,12.58,5.43,3.13,10.87,6.26,16.3,9.4-2.55,5.73-5.11,11.46-7.66,17.18,6.24.65,12.48,1.3,18.71,1.95,0,6.27,0,12.54-.01,18.82Z"></path><g><path class="cls-2" d="M47.49,78.9c.02.05.05.07.11.06.06,0,.09-.04.09-.09v-11.09c0-.12.04-.21.11-.29.08-.08.16-.11.26-.11h5.21c.1,0,.19.04.26.11.08.08.11.17.11.29v16.85c0,.1-.04.18-.11.25-.08.07-.16.1-.24.1l-10.09-.03c-.19,0-.3-.08-.35-.25l-3.02-11.29c-.02-.07-.06-.1-.14-.09-.08,0-.11.05-.11.11v11.17c0,.1-.03.19-.1.26-.07.08-.16.11-.28.11h-5.21c-.1,0-.19-.04-.26-.11-.08-.08-.11-.16-.11-.26v-16.88c0-.08.03-.16.1-.24.07-.08.15-.11.25-.11h10.16c.17,0,.28.08.33.25l3.02,11.27Z"></path><path class="cls-2" d="M61.07,72.64c-.13,0-.2.06-.2.18v1.03c0,.12.07.18.2.18h11.87c.13,0,.25.05.34.14.09.09.14.21.14.34v3.45c0,.13-.05.25-.14.34-.09.09-.21.14-.34.14h-11.87c-.13,0-.2.06-.2.18v1.08c0,.12.07.18.2.18h11.87c.13,0,.25.05.34.14s.14.21.14.34v4.18c0,.13-.05.25-.14.34s-.21.14-.34.14h-17.56c-.13,0-.25-.05-.34-.14s-.14-.21-.14-.34v-16.65c0-.13.05-.25.14-.34.09-.09.21-.14.34-.14h17.56c.13,0,.25.05.34.14.09.09.14.21.14.34v4.3c0,.13-.05.25-.14.34-.09.09-.21.14-.34.14h-11.87Z"></path><path class="cls-2" d="M81.78,84.99c-.17,0-.28-.08-.33-.23l-6.74-16.9s-.02-.08-.02-.13c0-.1.03-.18.1-.25s.15-.1.25-.1h5.84c.15,0,.26.08.33.23l3.9,9.84c.03.05.08.08.13.08s.08-.03.1-.08l.83-2.21.4-1.13-2.24-6.24s-.03-.08-.03-.13c0-.08.03-.16.1-.24.07-.08.15-.11.25-.11h9.58c.12,0,.21.05.28.15.07.1.08.21.05.33l-2.26,6.26c.67,1.88,1.07,2.99,1.21,3.32.02.05.05.08.11.08s.1-.03.11-.08l3.9-9.84c.07-.15.18-.23.33-.23h5.89c.13,0,.23.05.3.15.07.1.08.21.02.33l-6.79,16.9c-.05.15-.16.23-.33.23h-6.14c-.17,0-.28-.08-.33-.23l-1.16-3.09-1.18,3.09c-.05.15-.16.23-.33.23h-6.14Z"></path><path class="cls-2" d="M105.45,67.73c0-.08.04-.16.11-.24.08-.08.15-.11.24-.11h4.73c.1,0,.18.04.25.11.07.08.1.16.1.24v11.07c0,.1-.03.19-.1.25-.07.07-.15.1-.25.1h-4.73c-.08,0-.16-.03-.24-.1-.08-.07-.11-.15-.11-.25v-11.07ZM105.45,80.46c0-.1.03-.18.1-.24.07-.06.15-.09.25-.09h4.73c.1,0,.18.03.25.09.07.06.1.14.1.24v4.18c0,.08-.03.16-.1.24-.07.08-.15.11-.25.11h-4.73c-.08,0-.16-.04-.24-.11-.08-.08-.11-.15-.11-.24v-4.18Z"></path></g></svg> 